<svg width="152" height="43" viewBox="0 0 152 43" fill="none" xmlns="http://www.w3.org/2000/svg">
<rect x="0.7" y="0.7" width="150.6" height="41.6" fill="white" stroke="black" stroke-width="1.4"/>
<path d="M36.1028 26.9925C36.1028 29.0016 35.5776 30.4276 34.7584 31.467C33.9313 32.5165 32.7418 33.2511 31.2822 33.7577C28.3206 34.7859 24.5103 34.7956 21.0998 34.7956C17.6905 34.7956 13.8272 34.7862 10.8131 33.7563C9.32616 33.2482 8.11164 32.5116 7.26713 31.4605C6.43181 30.4208 5.89673 28.9971 5.89673 26.9925C5.89673 23.2445 6.70402 18.6828 9.00514 15.0887C11.2721 11.548 15.0181 8.88956 21.0998 8.88956C26.8645 8.88956 30.569 11.5528 32.871 15.1208C35.2022 18.7339 36.1028 23.3007 36.1028 26.9925Z" fill="#FBC546" stroke="black" stroke-width="1.7935"/>
<path fill-rule="evenodd" clip-rule="evenodd" d="M27.8668 25.1429L21.0416 28.5556C21.0416 28.5556 21.4246 29.3226 21.8947 30.2619C22.8375 32.1465 25.129 32.9109 27.0137 31.9682C28.8983 31.0255 29.6627 28.7339 28.72 26.8493C28.2499 25.9099 27.8668 25.1429 27.8668 25.1429Z" fill="#DD34A2"/>
<path d="M12.51 23.437C12.51 23.437 12.5902 23.5368 12.725 23.7058C14.7461 26.232 17.8056 27.7028 21.0408 27.7028H21.0425C24.2776 27.7028 27.3371 26.232 29.3582 23.7058C29.493 23.5368 29.5732 23.437 29.5732 23.437" stroke="#593604" stroke-width="1.70631" stroke-miterlimit="1.5" stroke-linecap="round"/>
<path fill-rule="evenodd" clip-rule="evenodd" d="M12.3312 20.6334C12.4907 20.7929 12.7074 20.8825 12.9335 20.8825C13.1596 20.8825 13.3763 20.7929 13.5358 20.6334C13.5393 20.63 13.5418 20.6283 13.5418 20.6283C14.0605 20.1095 14.7635 19.8178 15.4973 19.8178C16.231 19.8178 16.934 20.1095 17.4527 20.6283C17.4527 20.6283 17.4553 20.63 17.4587 20.6334C17.6182 20.7929 17.8349 20.8825 18.061 20.8825C18.2871 20.8825 18.5038 20.7929 18.6633 20.6334L18.6642 20.6325C18.9978 20.2998 18.9978 19.7589 18.6642 19.4262C18.6616 19.4228 18.6599 19.421 18.6599 19.421C17.8213 18.5824 16.6832 18.1115 15.4973 18.1115C14.3114 18.1115 13.1733 18.5824 12.3346 19.421C12.3346 19.421 12.3329 19.4228 12.3303 19.4262C11.9967 19.7589 11.9967 20.2998 12.3303 20.6325L12.3312 20.6334Z" fill="black"/>
<path fill-rule="evenodd" clip-rule="evenodd" d="M29.7545 20.6334C29.5949 20.7929 29.3782 20.8825 29.1521 20.8825C28.9261 20.8825 28.7094 20.7929 28.5498 20.6334C28.5464 20.63 28.5438 20.6283 28.5438 20.6283C28.0251 20.1095 27.3221 19.8178 26.5884 19.8178C25.8547 19.8178 25.1517 20.1095 24.633 20.6283C24.633 20.6283 24.6304 20.63 24.627 20.6334C24.4675 20.7929 24.2508 20.8825 24.0247 20.8825C23.7986 20.8825 23.5819 20.7929 23.4223 20.6334L23.4215 20.6325C23.0879 20.2998 23.0879 19.7589 23.4215 19.4262C23.424 19.4228 23.4257 19.421 23.4257 19.421C24.2644 18.5824 25.4025 18.1115 26.5884 18.1115C27.7743 18.1115 28.9124 18.5824 29.7511 19.421C29.7511 19.421 29.7528 19.4228 29.7553 19.4262C30.0889 19.7589 30.0889 20.2998 29.7553 20.6325L29.7545 20.6334Z" fill="black"/>
<text fill="black" xml:space="preserve" style="white-space: pre" font-family="Inter" font-size="11.6" font-weight="600" letter-spacing="0em"><tspan x="42" y="17.2182">Unicode coverage</tspan></text>
<text fill="black" xml:space="preserve" style="white-space: pre" font-family="Inter" font-size="4" font-weight="500" letter-spacing="0em"><tspan x="121.727" y="35.9545">962 missing</tspan></text>
<text fill="black" xml:space="preserve" style="white-space: pre" font-family="Inter" font-size="4" font-weight="500" letter-spacing="0em"><tspan x="42" y="35.9545">767 satisfied</tspan></text>
<rect x="42.2" y="22.2" width="101.6" height="7.6" rx="3.8" fill="#D7D7D7" stroke="black" stroke-width="1.6"/>
<rect x="43" y="23" width="44.36" height="6" rx="3" fill="#65DD51"/>
</svg>
